<svg width="20" height="20" viewBox="0 0 20 20" fill="none" xmlns="http://www.w3.org/2000/svg">
<path d="M3.31682 6.8525C2.5372 7.77265 1.95666 8.84434 1.61182 10C2.68848 13.615 6.03682 16.25 10.0001 16.25C10.8276 16.25 11.6276 16.135 12.386 15.9208M5.19015 5.19C6.61735 4.24822 8.29022 3.7474 10.0001 3.75C13.9635 3.75 17.311 6.385 18.3876 9.99833C17.7976 11.9728 16.531 13.6763 14.8101 14.81M5.19015 5.19L2.50015 2.5M5.19015 5.19L8.23182 8.23167M14.8101 14.81L17.5001 17.5M14.8101 14.81L11.7685 11.7683C12.0006 11.5362 12.1848 11.2605 12.3105 10.9572C12.4361 10.6539 12.5008 10.3287 12.5008 10.0004C12.5008 9.67208 12.4361 9.34697 12.3105 9.04363C12.1848 8.74029 12.0006 8.46467 11.7685 8.2325C11.5363 8.00033 11.2607 7.81617 10.9574 7.69052C10.654 7.56487 10.3289 7.5002 10.0006 7.5002C9.67223 7.5002 9.34712 7.56487 9.04378 7.69052C8.74044 7.81617 8.46482 8.00033 8.23265 8.2325M11.7676 11.7675L8.23348 8.23333" stroke="white" stroke-width="1.5" stroke-linecap="round" stroke-linejoin="round"/>
</svg>
